<svg xmlns="http://www.w3.org/2000/svg" viewBox="0 0 11.73 13.23"><defs><style>.logo-svg-primary-color{fill:#e95402;}</style></defs><g id="Layer_2" data-name="Layer 2"><g id="Layer_1-2" data-name="Layer 1"><path class="logo-svg-primary-color" d="M5.28,0V5.88H2.92v.73A8.93,8.93,0,0,0,3,7.93,3.23,3.23,0,0,0,3.36,9a2.63,2.63,0,0,0,.73.8,4,4,0,0,0,1.19.54v2.9a6.8,6.8,0,0,1-3.87-2.29A6.61,6.61,0,0,1,0,6.61V0Z"/><path class="logo-svg-primary-color" d="M11.73,0V5.87H9.37V6.6a8.93,8.93,0,0,0,.09,1.32A3.23,3.23,0,0,0,9.81,9a2.41,2.41,0,0,0,.73.8,3.65,3.65,0,0,0,1.19.54v2.9a6.8,6.8,0,0,1-3.87-2.29A6.61,6.61,0,0,1,6.45,6.6V0Z"/></g></g></svg>