<svg xmlns="http://www.w3.org/2000/svg" viewBox="0 0 197.85 150"><defs><style>.cls-1{fill:#fff;}.cls-2{fill:#e95402;}</style></defs><g id="Layer_2" data-name="Layer 2"><g id="Layer_1-2" data-name="Layer 1"><path class="cls-1" d="M98.92,150a75,75,0,1,0-75-75A75,75,0,0,0,98.92,150Z"/><path class="cls-2" d="M91,58.78H5a5,5,0,0,0-5,5v30a5,5,0,0,0,5,5H91a5,5,0,0,0,5-5v-30A5,5,0,0,0,91,58.78Z"/><path class="cls-1" d="M38,69.78H12a3,3,0,0,0,0,6H38a3,3,0,0,0,0-6Z"/><path class="cls-1" d="M56,82.78H12a3,3,0,0,0,0,6H56a3,3,0,0,0,0-6Z"/><path class="cls-2" d="M192.85,58.78h-86a5,5,0,0,0-5,5v30a5,5,0,0,0,5,5h86a5,5,0,0,0,5-5v-30A5,5,0,0,0,192.85,58.78Z"/><path class="cls-1" d="M139.85,69.78h-26a3,3,0,0,0,0,6h26a3,3,0,0,0,0-6Z"/><path class="cls-1" d="M157.85,82.78h-44a3,3,0,0,0,0,6h44a3,3,0,0,0,0-6Z"/></g></g></svg>