<svg xmlns="http://www.w3.org/2000/svg" viewBox="0 0 100.67 15.95"><defs><style>.cls-3{fill:#000000;}.cls-2{fill:#e95402;}</style></defs><g id="Layer_2" data-name="Layer 2"><g id="Layer_1-2" data-name="Layer 1"><path class="cls-3" d="M25,12.51a5,5,0,0,1-2.46-.58A4,4,0,0,1,20.9,10.3a5,5,0,0,1-.58-2.45A5,5,0,0,1,20.9,5.4a3.88,3.88,0,0,1,1.63-1.63A5,5,0,0,1,25,3.19a4.51,4.51,0,0,1,3,.93A4,4,0,0,1,29.35,6.7H26.79a1.92,1.92,0,0,0-.64-1.07A1.71,1.71,0,0,0,25,5.23,1.89,1.89,0,0,0,23.43,6a3,3,0,0,0-.58,1.9,3,3,0,0,0,.58,1.9,1.89,1.89,0,0,0,1.55.72,1.75,1.75,0,0,0,1.2-.41A1.86,1.86,0,0,0,26.8,9h2.55A4,4,0,0,1,28,11.56,4.52,4.52,0,0,1,25,12.51Z"/><path class="cls-3" d="M30.8,10.3a5,5,0,0,1-.59-2.45A5,5,0,0,1,30.8,5.4a4,4,0,0,1,1.67-1.63,5.68,5.68,0,0,1,5,0A4,4,0,0,1,39.14,5.4a5,5,0,0,1,.59,2.45,5,5,0,0,1-.59,2.45,4,4,0,0,1-1.67,1.63,5.68,5.68,0,0,1-5,0A4,4,0,0,1,30.8,10.3Zm6.42-2.45A2.85,2.85,0,0,0,36.61,6,2,2,0,0,0,35,5.23,2,2,0,0,0,33.35,6a2.85,2.85,0,0,0-.61,1.9,2.85,2.85,0,0,0,.61,1.9,2,2,0,0,0,1.62.72,2,2,0,0,0,1.64-.72A2.85,2.85,0,0,0,37.22,7.85Z"/><path class="cls-3" d="M49.94,5.4a5.38,5.38,0,0,1,.53,2.47,5.22,5.22,0,0,1-.53,2.44,3.94,3.94,0,0,1-1.48,1.62,4.06,4.06,0,0,1-2.16.58,3.28,3.28,0,0,1-2.73-1.26V16H41.1V3.3h2.16l.24,1.25a3.51,3.51,0,0,1,1.17-1,3.48,3.48,0,0,1,1.64-.37A3.94,3.94,0,0,1,49.94,5.4ZM48,7.83a2.81,2.81,0,0,0-.61-1.89,2,2,0,0,0-1.62-.71,2,2,0,0,0-1.59.71,2.86,2.86,0,0,0-.6,1.89,2.94,2.94,0,0,0,.6,1.92,2,2,0,0,0,1.59.72,2,2,0,0,0,1.62-.73A2.88,2.88,0,0,0,48,7.83Z"/><path class="cls-3" d="M55.45,9.83,57.59,3.3h2.65l-4,10.4a8.19,8.19,0,0,1-.6,1.3,1.93,1.93,0,0,1-.71.71,2.3,2.3,0,0,1-1.12.24h-2.4V13.84h1.37a1.12,1.12,0,0,0,.68-.16,1.53,1.53,0,0,0,.41-.62l.22-.6L50.62,3.3h2.63Z"/><path class="cls-3" d="M69.76,12.4H67.6l-.25-1.25a3.33,3.33,0,0,1-2.81,1.36,4,4,0,0,1-2.14-.58,3.9,3.9,0,0,1-1.48-1.63,5.38,5.38,0,0,1-.54-2.47,5.24,5.24,0,0,1,.54-2.43,3.8,3.8,0,0,1,1.49-1.63,4.05,4.05,0,0,1,2.15-.58,3.23,3.23,0,0,1,2.72,1.24V0h2.48ZM67.32,7.87A2.94,2.94,0,0,0,66.72,6a2.14,2.14,0,0,0-3.2,0,2.85,2.85,0,0,0-.61,1.9,2.85,2.85,0,0,0,.61,1.9,2.14,2.14,0,0,0,3.2,0A2.81,2.81,0,0,0,67.32,7.87Z"/><path class="cls-3" d="M73.3,3.77a4.72,4.72,0,0,1,2.38-.58,5.19,5.19,0,0,1,2.41.54,4,4,0,0,1,1.63,1.52,4.48,4.48,0,0,1,.61,2.32,4.36,4.36,0,0,1-.07.85H73.71v.07a2.53,2.53,0,0,0,.63,1.56,2,2,0,0,0,1.5.56,2.21,2.21,0,0,0,1.25-.32,1.58,1.58,0,0,0,.66-1h2.44A3.49,3.49,0,0,1,79.5,11a3.59,3.59,0,0,1-1.43,1.14,4.83,4.83,0,0,1-2.06.42,5.61,5.61,0,0,1-2.61-.57,4,4,0,0,1-1.68-1.62,5,5,0,0,1-.59-2.45A5.09,5.09,0,0,1,71.7,5.4,3.93,3.93,0,0,1,73.3,3.77ZM77.18,5.5a2.16,2.16,0,0,0-1.4-.45,2,2,0,0,0-1.36.47,1.92,1.92,0,0,0-.66,1.27h4.09A1.93,1.93,0,0,0,77.18,5.5Z"/><path class="cls-3" d="M86,12.51a5,5,0,0,1-2.46-.58A4,4,0,0,1,81.9,10.3a5.12,5.12,0,0,1-.57-2.45A5.07,5.07,0,0,1,81.9,5.4a3.91,3.91,0,0,1,1.64-1.63A5,5,0,0,1,86,3.19a4.51,4.51,0,0,1,3,.93A4,4,0,0,1,90.36,6.7H87.79a1.85,1.85,0,0,0-.63-1.07A1.73,1.73,0,0,0,86,5.23,1.89,1.89,0,0,0,84.44,6a3,3,0,0,0-.58,1.9,3,3,0,0,0,.58,1.9,1.89,1.89,0,0,0,1.55.72,1.75,1.75,0,0,0,1.2-.41A1.86,1.86,0,0,0,87.81,9h2.55A4,4,0,0,1,89,11.56,4.54,4.54,0,0,1,86,12.51Z"/><path class="cls-3" d="M94.17,0V7.18L97.72,3.3h2.77L97.28,6.86l3.39,5.54H97.8L95.52,8.72l-1.35,1.47V12.4H91.69V0Z"/><path class="cls-2" d="M7.14,7.61H3.72A4.52,4.52,0,0,0,4.53,10a7.55,7.55,0,0,0,2.61,2L5.6,15.37a10.59,10.59,0,0,1-4.34-3.56A10.34,10.34,0,0,1,0,6.31V0H7.14Z"/><path class="cls-2" d="M15.4,7.61H12a4.43,4.43,0,0,0,.8,2.38,7.75,7.75,0,0,0,2.61,2l-1.54,3.36a10.55,10.55,0,0,1-4.33-3.56,10.34,10.34,0,0,1-1.26-5.5V0H15.4Z"/></g></g></svg>