<svg width="23" height="11" fill="none"><path data-v-222994e4="" d="M4.17 8.326c-.712.888-1.048 1.587-1.048 1.587L4.17 8.326zm0 0c.678-.845 1.697-1.86 3.091-2.606m-3.09 2.606L7.26 5.72m-3.09 2.606L1.025 6.768m10.482-2.096c1.686 0 3.095.432 4.247 1.048m-4.247-1.048l4.247 1.048m-4.247-1.048A8.887 8.887 0 007.261 5.72m4.247-1.048L7.261 5.72m4.247-1.048V1.003m4.247 4.717l3.09-3.144m-3.09 3.144c1.32.706 2.303 1.653 2.98 2.469m-2.98-2.469l2.98 2.469M7.26 5.72L4.695 2.576m14.04 5.613c.788.952 1.159 1.724 1.159 1.724l-1.16-1.724zm0 0l3.255-1.42" stroke="currentColor" stroke-width="2" stroke-linecap="round" stroke-linejoin="round"></path></svg>