<svg width="23" height="11" fill="none"><path data-v-222994e4="" d="M18.845 2.587C19.558 1.7 19.893 1 19.893 1l-1.048 1.587zm0 0c-.677.845-1.696 1.86-3.09 2.606m3.09-2.606l-3.09 2.606m3.09-2.606l3.145 1.558M11.508 6.24A8.887 8.887 0 017.26 5.193m4.247 1.048L7.26 5.193m4.247 1.048a8.887 8.887 0 004.246-1.048M11.508 6.24l4.246-1.048M11.508 6.24V9.91M7.26 5.193L4.17 8.338m3.09-3.145C5.94 4.487 4.958 3.54 4.28 2.724m2.98 2.469L4.28 2.724m11.473 2.469l2.567 3.145M4.281 2.724C3.493 1.772 3.121 1 3.121 1l1.16 1.724zm0 0l-3.256 1.42" stroke="currentColor" stroke-width="2" stroke-linecap="round" stroke-linejoin="round"></path></svg>